<svg width="39" height="36" viewBox="0 0 39 36" fill="none" xmlns="http://www.w3.org/2000/svg">
<path d="M34.1245 31.915H4.74664V12.665H34.1245M27.8292 0.415039V3.91504H11.0419V0.415039H6.84505V3.91504H4.74664C2.4174 3.91504 0.549805 5.47254 0.549805 7.41504V31.915C0.549805 32.8433 0.99197 33.7335 1.77903 34.3899C2.56609 35.0463 3.63357 35.415 4.74664 35.415H34.1245C35.2375 35.415 36.305 35.0463 37.0921 34.3899C37.8791 33.7335 38.3213 32.8433 38.3213 31.915V7.41504C38.3213 6.48678 37.8791 5.59654 37.0921 4.94017C36.305 4.28379 35.2375 3.91504 34.1245 3.91504H32.0261V0.415039M29.9276 19.665H19.4356V28.415H29.9276V19.665Z" fill="black"/>
</svg>
