<svg width="36" height="36" viewBox="0 0 36 36" fill="none" xmlns="http://www.w3.org/2000/svg">
<path d="M0.285156 17.8065C0.285156 14.636 1.07779 11.6986 2.6475 9.00985C4.21722 6.32113 6.34644 4.19191 9.03516 2.62219C11.7239 1.05248 14.6457 0.275391 17.8007 0.275391C20.163 0.275391 22.4321 0.741643 24.5924 1.65861C26.7527 2.57557 28.6022 3.83445 30.1719 5.38862C31.7416 6.9428 32.985 8.80781 33.9019 10.9837C34.8189 13.1595 35.2852 15.413 35.2852 17.8065C35.2852 20.1688 34.8189 22.4379 33.9019 24.5982C32.985 26.7585 31.7261 28.6235 30.1719 30.1777C28.6177 31.7319 26.7527 32.9752 24.5924 33.8922C22.4321 34.8091 20.1786 35.2754 17.8007 35.2754C15.4228 35.2754 13.1382 34.8091 10.9779 33.8922C8.81757 32.9752 6.95256 31.7163 5.38285 30.1622C3.81313 28.608 2.58533 26.743 1.65283 24.5982C0.720325 22.4535 0.285156 20.1844 0.285156 17.8065ZM4.13951 17.8065C4.13951 21.4899 5.4761 24.6915 8.16482 27.4113C10.8535 30.1 14.0551 31.4366 17.8007 31.4366C20.2563 31.4366 22.5409 30.8305 24.6235 29.6027C26.7061 28.3749 28.3846 26.7274 29.6124 24.6293C30.8402 22.5312 31.4619 20.2621 31.4619 17.8065C31.4619 15.3509 30.8402 13.0662 29.6124 10.9681C28.3846 8.86997 26.7217 7.20701 24.6235 5.97921C22.5254 4.75141 20.2563 4.14528 17.8007 4.14528C15.3451 4.14528 13.0605 4.75141 10.9779 5.97921C8.89528 7.20701 7.21677 8.86997 5.97343 10.9681C4.73009 13.0662 4.13951 15.3509 4.13951 17.8065ZM16.4486 17.8065V7.45568C16.4486 7.09822 16.5729 6.78738 16.8216 6.53871C17.0702 6.29004 17.3811 6.16571 17.7385 6.16571C18.096 6.16571 18.4068 6.29004 18.6555 6.53871C18.9042 6.78738 19.0285 7.09822 19.0285 7.45568V17.0138L24.608 20.2621C24.9188 20.4486 25.1053 20.7128 25.1986 21.0547C25.2918 21.3966 25.2452 21.723 25.0587 22.0183C24.81 22.4535 24.437 22.671 23.9397 22.671C23.6755 22.671 23.4579 22.6089 23.2869 22.4845L17.35 19.0187C17.0858 18.941 16.8682 18.7856 16.6972 18.568C16.5263 18.3504 16.4486 18.1018 16.4486 17.8065Z" fill="black"/>
</svg>
