<svg width="45" height="45" viewBox="0 0 45 45" fill="none" xmlns="http://www.w3.org/2000/svg">
<path d="M39.8625 24.0698H32.7058V20.407H39.8625V24.0698ZM39.8625 26.1628H32.7058V29.8256H39.8625V26.1628ZM39.8625 8.89533H32.7058V12.5581H39.8625V8.89533ZM39.8625 14.6511H32.7058V18.3139H39.8625V14.6511ZM39.8625 31.9186H32.7058V35.5814H39.8625V31.9186ZM44.8057 39.1396C44.6012 40.228 43.3232 40.2541 42.4695 40.2908H26.5716V45H23.3971L0 40.8139V4.19131L23.5352 0H26.5716V4.17035H41.9226C42.7865 4.20696 43.7374 4.14417 44.4887 4.67263C45.0153 5.44705 44.9642 6.43082 45 7.32031L44.9795 34.561C44.954 36.0837 45.1175 37.6379 44.8057 39.1396ZM18.7452 30.9297C17.3344 27.9995 15.898 25.0901 14.4922 22.1598C15.8826 19.3081 17.2527 16.446 18.6175 13.5837C17.4571 13.6413 16.2967 13.7145 15.1414 13.7983C14.2775 15.9488 13.2704 18.0418 12.5957 20.2657C11.9669 18.1674 11.1337 16.1476 10.3721 14.1017C9.24741 14.1645 8.12276 14.2325 6.9982 14.3005C8.18411 16.9797 9.44683 19.622 10.597 22.3168C9.24231 24.9331 7.97458 27.5861 6.66079 30.218C7.78025 30.2651 8.8998 30.3122 10.0193 30.3279C10.8168 28.2454 11.8085 26.2413 12.5037 24.1169C13.1273 26.3983 14.1855 28.507 15.0545 30.6889C16.2865 30.778 17.5133 30.8564 18.7452 30.9297ZM42.5619 6.65546H26.5716V8.89533H30.6612V12.5581H26.5716V14.6511H30.6612V18.3139H26.5716V20.407H30.6612V24.0698H26.5716V26.1628H30.6612V29.8256H26.5716V31.9186H30.6612V35.5814H26.5716V38.0012H42.5619V6.65546Z" fill="white"/>
</svg>
