<svg width="35" height="35" viewBox="0 0 35 35" fill="none" xmlns="http://www.w3.org/2000/svg">
<path d="M24.9748 19.0148C27.8502 20.2651 30.302 22.2129 32.0671 24.6492C33.8323 27.0855 34.8444 29.9184 34.9948 32.8443C35.0149 33.1123 34.9766 33.3813 34.8822 33.6354C34.7879 33.8896 34.6394 34.1239 34.4454 34.3245C34.2514 34.5251 34.0159 34.688 33.7527 34.8036C33.4895 34.9192 33.2038 34.9853 32.9125 34.9978C32.6212 35.0103 32.3301 34.9692 32.0563 34.8766C31.7826 34.7841 31.5316 34.6422 31.3182 34.4591C31.1047 34.2761 30.9331 34.0556 30.8135 33.8106C30.6938 33.5656 30.6285 33.3011 30.6213 33.0325C30.4621 29.9249 29.01 26.993 26.5663 24.8456C24.1226 22.6981 20.875 21.5001 17.4977 21.5001C14.1205 21.5001 10.8729 22.6981 8.42923 24.8456C5.98552 26.993 4.53337 29.9249 4.3742 33.0325C4.33488 33.5585 4.07352 34.0495 3.64612 34.4002C3.21871 34.7509 2.65923 34.9335 2.08748 34.9089C1.51573 34.8842 0.977172 34.6544 0.58713 34.2685C0.197088 33.8826 -0.0134274 33.3714 0.000664492 32.8443C0.150818 29.9187 1.16245 27.086 2.9271 24.6497C4.69176 22.2134 7.1429 20.2655 10.0178 19.0148C8.17554 17.5992 6.85137 15.6953 6.22537 13.562C5.59938 11.4286 5.70194 9.16941 6.51912 7.09167C7.3363 5.01393 8.82842 3.2185 10.7925 1.94962C12.7566 0.68074 15.0973 0 17.4963 0C19.8952 0 22.236 0.68074 24.2001 1.94962C26.1641 3.2185 27.6563 5.01393 28.4734 7.09167C29.2906 9.16941 29.3932 11.4286 28.7672 13.562C28.1412 15.6953 26.817 17.5992 24.9748 19.0148ZM24.7967 10.7499C24.7967 8.9666 24.0277 7.25638 22.6589 5.99542C21.2901 4.73447 19.4336 4.02607 17.4977 4.02607C15.5619 4.02607 13.7054 4.73447 12.3366 5.99542C10.9678 7.25638 10.1988 8.9666 10.1988 10.7499C10.1988 12.5331 10.9678 14.2433 12.3366 15.5043C13.7054 16.7653 15.5619 17.4737 17.4977 17.4737C19.4336 17.4737 21.2901 16.7653 22.6589 15.5043C24.0277 14.2433 24.7967 12.5331 24.7967 10.7499Z" fill="black"/>
</svg>
