<svg width="21" height="25" viewBox="0 0 21 25" fill="none" xmlns="http://www.w3.org/2000/svg">
<path d="M10.7333 13.8805C10.355 13.8763 9.98453 13.9822 9.67156 14.1839C9.35872 14.3856 9.11831 14.6734 8.98301 15.0085C8.84771 15.3437 8.82386 15.7103 8.91455 16.0588C9.00538 16.4071 9.20652 16.7208 9.49092 16.9576V18.5963C9.49092 18.909 9.62187 19.2089 9.85482 19.43C10.0878 19.651 10.4038 19.7753 10.7333 19.7753C11.0628 19.7753 11.3789 19.651 11.6119 19.43C11.8448 19.2089 11.9758 18.909 11.9758 18.5963V16.9576C12.2602 16.7208 12.4613 16.4071 12.5521 16.0588C12.6428 15.7103 12.619 15.3437 12.4837 15.0085C12.3484 14.6734 12.108 14.3856 11.7951 14.1839C11.4821 13.9822 11.1117 13.8763 10.7333 13.8805ZM16.9455 9.16474V6.80685C16.9455 5.24347 16.291 3.74412 15.1259 2.63864C13.961 1.53316 12.3809 0.912109 10.7333 0.912109C9.08576 0.912109 7.50571 1.53316 6.34071 2.63864C5.1757 3.74412 4.52122 5.24347 4.52122 6.80685V9.16474C3.53268 9.16474 2.58464 9.53737 1.88564 10.2007C1.18664 10.864 0.793945 11.7636 0.793945 12.7016V20.9542C0.793945 21.8922 1.18664 22.7918 1.88564 23.4551C2.58464 24.1184 3.53268 24.4911 4.52122 24.4911H16.9455C17.9339 24.4911 18.882 24.1184 19.581 23.4551C20.28 22.7918 20.6727 21.8922 20.6727 20.9542V12.7016C20.6727 11.7636 20.28 10.864 19.581 10.2007C18.882 9.53737 17.9339 9.16474 16.9455 9.16474ZM7.00607 6.80685C7.00607 5.86882 7.39876 4.96921 8.09776 4.30592C8.79677 3.64263 9.74487 3.27 10.7333 3.27C11.7218 3.27 12.6699 3.64263 13.3689 4.30592C14.0679 4.96921 14.4606 5.86882 14.4606 6.80685V9.16474H7.00607V6.80685ZM18.1879 20.9542C18.1879 21.2669 18.0569 21.5668 17.824 21.7878C17.591 22.0089 17.275 22.1332 16.9455 22.1332H4.52122C4.1917 22.1332 3.87569 22.0089 3.64269 21.7878C3.4097 21.5668 3.27879 21.2669 3.27879 20.9542V12.7016C3.27879 12.3889 3.4097 12.089 3.64269 11.8679C3.87569 11.6469 4.1917 11.5226 4.52122 11.5226H16.9455C17.275 11.5226 17.591 11.6469 17.824 11.8679C18.0569 12.089 18.1879 12.3889 18.1879 12.7016V20.9542Z" fill="#B5B5B5"/>
</svg>
