<svg width="35" height="30" viewBox="0 0 35 30" fill="none" xmlns="http://www.w3.org/2000/svg">
<path d="M8.02083 7.89474C8.02083 7.27269 8.134 6.65673 8.35386 6.08203C8.57373 5.50733 8.89599 4.98514 9.30224 4.54528C9.7085 4.10543 10.1908 3.75651 10.7216 3.51846C11.2524 3.28042 11.8213 3.15789 12.3958 3.15789C12.9704 3.15789 13.5393 3.28042 14.0701 3.51846C14.6009 3.75651 15.0832 4.10543 15.4894 4.54528C15.8957 4.98514 16.2179 5.50733 16.4378 6.08203C16.6577 6.65673 16.7708 7.27269 16.7708 7.89474C16.7708 9.15103 16.3099 10.3559 15.4894 11.2442C14.669 12.1325 13.5562 12.6316 12.3958 12.6316C11.2355 12.6316 10.1227 12.1325 9.30224 11.2442C8.48177 10.3559 8.02083 9.15103 8.02083 7.89474ZM12.3958 0C10.462 0 8.6073 0.831765 7.23985 2.31231C5.87239 3.79287 5.10417 5.80092 5.10417 7.89474C5.10417 9.98855 5.87239 11.9966 7.23985 13.4772C8.6073 14.9577 10.462 15.7895 12.3958 15.7895C14.3297 15.7895 16.1844 14.9577 17.5518 13.4772C18.9193 11.9966 19.6875 9.98855 19.6875 7.89474C19.6875 5.80092 18.9193 3.79287 17.5518 2.31231C16.1844 0.831765 14.3297 0 12.3958 0ZM22.6042 0H21.1458V3.15789H22.6042C23.1787 3.15789 23.7476 3.28042 24.2784 3.51847C24.8092 3.75651 25.2915 4.10543 25.6978 4.54528C26.104 4.98514 26.4263 5.50733 26.6461 6.08203C26.866 6.65673 26.9792 7.27269 26.9792 7.89474C26.9792 8.51679 26.866 9.13275 26.6461 9.70745C26.4263 10.2821 26.104 10.8043 25.6978 11.2442C25.2915 11.684 24.8092 12.033 24.2784 12.271C23.7476 12.5091 23.1787 12.6316 22.6042 12.6316H21.1458V15.7895H22.6042C24.538 15.7895 26.3927 14.9577 27.7602 13.4772C29.1276 11.9966 29.8958 9.98855 29.8958 7.89474C29.8958 5.80092 29.1276 3.79287 27.7602 2.31231C26.3927 0.831765 24.538 0 22.6042 0ZM0 26.8421C0 24.7483 0.768227 22.7402 2.13568 21.2597C3.50313 19.7791 5.3578 18.9474 7.29167 18.9474H17.5C19.4339 18.9474 21.2885 19.7791 22.656 21.2597C24.0234 22.7402 24.7917 24.7483 24.7917 26.8421V30H21.875V26.8421C21.875 25.5858 21.4141 24.381 20.5936 23.4927C19.7731 22.6043 18.6603 22.1053 17.5 22.1053H7.29167C6.13134 22.1053 5.01855 22.6043 4.19807 23.4927C3.3776 24.381 2.91667 25.5858 2.91667 26.8421V30H0V26.8421ZM35 26.8421C35 25.8054 34.8114 24.7788 34.445 23.8209C34.0785 22.8631 33.5414 21.9928 32.8643 21.2597C32.1872 20.5266 31.3834 19.9451 30.4987 19.5483C29.6141 19.1516 28.6659 18.9474 27.7083 18.9474H26.25V22.1053H27.7083C28.8687 22.1053 29.9815 22.6043 30.8019 23.4927C31.6224 24.381 32.0833 25.5858 32.0833 26.8421V30H35V26.8421Z" fill="black"/>
</svg>
