<svg width="36" height="36" viewBox="0 0 36 36" fill="none" xmlns="http://www.w3.org/2000/svg">
<path fill-rule="evenodd" clip-rule="evenodd" d="M36 18C36 22.7739 34.1036 27.3523 30.7279 30.7279C27.3523 34.1036 22.7739 36 18 36C13.2261 36 8.64773 34.1036 5.27208 30.7279C1.89642 27.3523 0 22.7739 0 18C0 13.2261 1.89642 8.64773 5.27208 5.27208C8.64773 1.89642 13.2261 0 18 0C22.7739 0 27.3523 1.89642 30.7279 5.27208C34.1036 8.64773 36 13.2261 36 18ZM23.625 12.375C23.625 13.8668 23.0324 15.2976 21.9775 16.3525C20.9226 17.4074 19.4918 18 18 18C16.5082 18 15.0774 17.4074 14.0225 16.3525C12.9676 15.2976 12.375 13.8668 12.375 12.375C12.375 10.8832 12.9676 9.45242 14.0225 8.39752C15.0774 7.34263 16.5082 6.75 18 6.75C19.4918 6.75 20.9226 7.34263 21.9775 8.39752C23.0324 9.45242 23.625 10.8832 23.625 12.375ZM18 22.5C15.9084 22.4981 13.8451 22.983 11.9734 23.9163C10.1016 24.8497 8.47278 26.2058 7.21575 27.8775C8.58404 29.3756 10.2499 30.5717 12.1069 31.3892C13.9639 32.2067 15.9711 32.6276 18 32.625C20.0289 32.6276 22.0361 32.2067 23.8931 31.3892C25.7501 30.5717 27.416 29.3756 28.7843 27.8775C27.5272 26.2058 25.8984 24.8497 24.0266 23.9163C22.1549 22.983 20.0916 22.4981 18 22.5Z" fill="#818182"/>
</svg>
